<?xml version="1.0" encoding="UTF-8"?>
<svg id="Layer_1" data-name="Layer 1" xmlns="http://www.w3.org/2000/svg" xmlns:xlink="http://www.w3.org/1999/xlink" viewBox="0 0 1479.09 1658.14">
  <defs>
    <style>
      .cls-1 {
        fill: #094cad;
      }

      .cls-2 {
        fill: url(#linear-gradient-2);
      }

      .cls-3 {
        fill: #a2eaa3;
      }

      .cls-4 {
        fill: url(#linear-gradient-4);
      }

      .cls-5 {
        fill: none;
        stroke: #094cad;
        stroke-linecap: round;
        stroke-linejoin: round;
        stroke-width: 1.5px;
      }

      .cls-6 {
        fill: url(#radial-gradient);
      }

      .cls-7 {
        fill: url(#linear-gradient-3);
      }

      .cls-8 {
        fill: url(#linear-gradient-5);
      }

      .cls-9 {
        fill: url(#radial-gradient-2);
      }

      .cls-10 {
        fill: url(#linear-gradient);
      }
    </style>
    <linearGradient id="linear-gradient" x1="140.64" y1="1396.42" x2="613.19" y2="1397.7" gradientUnits="userSpaceOnUse">
      <stop offset="0" stop-color="#f00104"/>
      <stop offset=".85" stop-color="#fac606"/>
      <stop offset="1" stop-color="#a2eaa3"/>
    </linearGradient>
    <linearGradient id="linear-gradient-2" x1="656.31" y1="1404.68" x2="1300.52" y2="1386.8" gradientUnits="userSpaceOnUse">
      <stop offset=".14" stop-color="#a2eaa3"/>
      <stop offset=".24" stop-color="#90d8a4"/>
      <stop offset=".44" stop-color="#64aaa7"/>
      <stop offset=".72" stop-color="#1d61ab"/>
      <stop offset=".8" stop-color="#094cad"/>
    </linearGradient>
    <radialGradient id="radial-gradient" cx="791.42" cy="218.48" fx="791.42" fy="218.48" r="860.11" gradientUnits="userSpaceOnUse">
      <stop offset=".35" stop-color="#1476ed"/>
      <stop offset="1" stop-color="#050070"/>
    </radialGradient>
    <linearGradient id="linear-gradient-3" x1="1198.27" y1="287.41" x2="1093.11" y2="287.41" gradientTransform="translate(-47.56 -225.68)" gradientUnits="userSpaceOnUse">
      <stop offset="0" stop-color="#1476ed"/>
      <stop offset="1" stop-color="#050070"/>
    </linearGradient>
    <linearGradient id="linear-gradient-4" x1="1389.06" x2="1283.9" gradientTransform="translate(-92.08 -103.17)" xlink:href="#linear-gradient-3"/>
    <radialGradient id="radial-gradient-2" cx="1253.84" cy="277.7" fx="1253.84" fy="277.7" r="54.93" gradientTransform="translate(405.16 -896.43) rotate(39.95)" gradientUnits="userSpaceOnUse">
      <stop offset="0" stop-color="#1476ed"/>
      <stop offset="1" stop-color="#050070"/>
    </radialGradient>
    <linearGradient id="linear-gradient-5" x1="-4.33" y1="607.19" x2="1496.17" y2="607.19" gradientUnits="userSpaceOnUse">
      <stop offset="0" stop-color="#57010a"/>
      <stop offset=".02" stop-color="#670109"/>
      <stop offset=".07" stop-color="#920107"/>
      <stop offset=".13" stop-color="#d70104"/>
      <stop offset=".16" stop-color="#fe0103"/>
      <stop offset=".25" stop-color="#fc6704"/>
      <stop offset=".35" stop-color="#fae206"/>
      <stop offset=".37" stop-color="#f3e105"/>
      <stop offset=".39" stop-color="#e1e105"/>
      <stop offset=".41" stop-color="#c3e004"/>
      <stop offset=".44" stop-color="#99de03"/>
      <stop offset=".47" stop-color="#64dc02"/>
      <stop offset=".5" stop-color="#23da00"/>
      <stop offset=".52" stop-color="#02d900"/>
      <stop offset=".53" stop-color="#02d406"/>
      <stop offset=".55" stop-color="#05c817"/>
      <stop offset=".57" stop-color="#09b433"/>
      <stop offset=".6" stop-color="#0f975b"/>
      <stop offset=".63" stop-color="#17738e"/>
      <stop offset=".65" stop-color="#2048cc"/>
      <stop offset=".67" stop-color="#2824ff"/>
      <stop offset=".84" stop-color="#6801ff"/>
      <stop offset="1" stop-color="#240057"/>
    </linearGradient>
  </defs>
  <g>
    <path class="cls-10" d="M214.1,1477.25h-42.92c-7.12,0-12.68-5.56-12.68-12.68v-136.76c0-6.89,5.56-12.68,12.68-12.68h42.92c49.37,0,56.93,36.03,56.93,60.27v41.81c0,24.46-7.56,60.04-56.93,60.04ZM212.32,1453.46c27.8,0,33.36-16.68,33.36-36.47v-41.14c0-19.79-5.78-36.47-33.36-36.47h-28.46v114.08h28.46ZM394.89,1339.82h-38.03v126.76c0,7.12-5.78,12.68-12.68,12.68s-12.68-5.56-12.68-12.68v-126.76h-38.03c-6.67,0-12.23-5.56-12.23-12.23s5.56-12.45,12.23-12.45h101.41c6.67,0,12.01,5.56,12.01,12.45s-5.34,12.23-12.01,12.23ZM514.09,1477.25h-74.94c-6.67,0-12.01-5.34-12.01-12.01v-137.88c0-6.67,5.34-12.23,12.01-12.23h71.83c6.67,0,12.01,5.56,12.01,12.23s-5.34,12.01-12.01,12.01h-58.49v45.14h53.15c6.45,0,11.79,5.34,11.79,11.79s-5.34,11.56-11.79,11.56h-53.15v45.14h61.6c6.67,0,12.01,5.56,12.01,12.23s-5.34,12.01-12.01,12.01ZM619.27,1423.44h-59.38c-6.23,0-11.34-5.11-11.34-11.56,0-6,5.12-11.34,11.34-11.34h59.38c6.45,0,11.56,5.34,11.56,11.34,0,6.45-5.11,11.56-11.56,11.56Z"/>
    <path class="cls-2" d="M692.43,1479.25c-16.01,0-29.58-1.78-42.03-6.67-5.78-2-8.45-6.89-8.45-11.56,0-6.23,4.23-12.01,10.9-12.01,4.67,0,8.45,3.11,18.24,5.34,4.89,1.11,11.12,2,19.35,2,24.91,0,35.8-10.23,35.8-25.8,0-11.34-5.78-16.9-21.79-21.35-11.56-3.34-30.91-5.78-42.25-11.79-11.12-6-19.35-16.01-19.35-34.69,0-31.8,23.57-49.59,53.82-49.59,13.34,0,25.35,1.33,36.47,5.78,5.78,2,8.67,6.45,8.67,11.12,0,6.23-4.45,12.23-11.79,12.23-4,0-7.34-2.67-15.57-4.45-4-.89-9.12-1.56-16.01-1.56-19.35,0-30.47,9.12-30.47,23.35,0,12.9,7.56,17.57,22.02,21.35,14.23,3.78,33.36,5.78,44.48,12.9,11.34,7.34,17.12,18.68,17.12,34.25,0,33.58-24.46,51.15-59.15,51.15ZM860.33,1477.25h-75.39c-7.34,0-12.23-4.89-12.23-12.01,0-23.13,10.67-37.8,24.24-49.81,21.57-19.12,50.04-30.69,50.04-54.48,0-12.68-7.12-24.68-24.68-24.68-9.12,0-15.57,2-20.9,5.12-7.12,3.78-9.79,7.56-14.9,7.56-6.45,0-12.23-5.11-12.23-12.01,0-3.11,1.11-6.45,4.45-9.12,11.56-9.56,26.46-14.68,44.48-14.68,35.14,0,49.15,24.91,49.15,47.81,0,48.26-61.38,55.82-72.27,92.07h60.27c6.67,0,12.01,5.56,12.01,12.23s-5.56,12.01-12.01,12.01ZM957.73,1479.25c-42.03,0-57.82-28.46-57.82-70.27v-25.8c0-40.03,16.23-70.05,58.93-70.05,13.57,0,26.91,4,34.25,10.01,4.89,3.56,7.34,8.23,7.34,11.79,0,5.78-4,10.9-11.56,10.9-3.56,0-6-2.22-11.79-5.34-4-2.22-9.56-4.45-18.24-4.45-22.68,0-33.58,15.12-33.58,47.81v24.91c0,34.25,10.45,47.59,32.47,47.59s28.91-12.9,28.91-32.25v-9.34h-20.46c-6.45,0-11.79-5.11-11.79-11.79s5.34-11.79,11.79-11.79h32.91c7.12,0,12.23,5.34,12.23,12.68v19.57c0,30.24-15.34,55.82-53.59,55.82ZM1094.94,1479.48c-42.48,0-56.71-30.02-56.71-60.27v-46.03c0-30.24,14.23-60.04,56.71-60.04s56.93,29.8,56.93,60.04v46.03c0,30.24-14.46,60.27-56.93,60.27ZM1094.94,1456.35c24.24,0,31.58-16.01,31.58-37.14v-46.03c0-20.9-7.34-36.92-31.58-36.92s-31.36,15.79-31.36,36.92v46.03c0,21.13,7.34,37.14,31.36,37.14ZM1227.25,1479.25c-16.01,0-29.58-1.78-42.03-6.67-5.78-2-8.45-6.89-8.45-11.56,0-6.23,4.22-12.01,10.9-12.01,4.67,0,8.45,3.11,18.24,5.34,4.89,1.11,11.12,2,19.35,2,24.91,0,35.8-10.23,35.8-25.8,0-11.34-5.78-16.9-21.79-21.35-11.56-3.34-30.91-5.78-42.25-11.79-11.12-6-19.35-16.01-19.35-34.69,0-31.8,23.57-49.59,53.82-49.59,13.34,0,25.35,1.33,36.47,5.78,5.78,2,8.67,6.45,8.67,11.12,0,6.23-4.45,12.23-11.79,12.23-4,0-7.34-2.67-15.57-4.45-4-.89-9.12-1.56-16.01-1.56-19.35,0-30.47,9.12-30.47,23.35,0,12.9,7.56,17.57,22.02,21.35,14.23,3.78,33.36,5.78,44.48,12.9,11.34,7.34,17.12,18.68,17.12,34.25,0,33.58-24.46,51.15-59.15,51.15Z"/>
  </g>
  <path class="cls-6" d="M219.28,825.66c43.3,10.22,87.36,6.49,131.05,1.18,22.46-2.73,45.29-4.37,67.56-8.34,21.02-3.75,41.59-9.89,61.51-17.55,41.35-15.89,80.7-38.52,115.4-66.05,38.5-30.55,73.45-65.51,110.06-98.24,17.74-15.86,36.06-30.67,55.23-44.76,18.38-13.52,37.01-26.72,54.58-41.28,16.97-14.07,32.21-29.46,45.9-46.74,10.71-13.52,20.91-27.44,31.81-40.81,21.08-25.85,45.7-46.39,76.61-59.46,21.33-9.02,43.96-15.38,66.32-21.29,24.05-6.36,48.4-11.57,72.93-15.73,46.92-7.95,94.29-12.01,141.76-13.17C1158.65,159.25,961.26,24.83,732.47,24.83c-315.7,0-571.62,255.92-571.62,571.62,0,80.29,16.56,156.72,46.45,226.05,3.97,1.15,7.96,2.21,11.99,3.16Z"/>
  <path class="cls-3" d="M194.42,816.11c2.3.13,4.61.27,6.91.42-22.2-57.1-35.63-119.04-38.42-184.45C147.47,269.54,471.16-11.98,828.07,42.73c67.12,10.29,130.94,33.06,190.61,64.85.02,1.54-3.52,1.41-4.82,1.66-15.84,3.04-35.79,7.56-51.61,8.37-5.24.27-11.34-1.06-15.79-.8-16.08.92-46.33,32.65-60.4,42.59-12.61,8.92-28.37,13.69-35.1-4.55-2.4-6.49-2.23-10.66.6-16.96,3.67-8.19,21.88-26.95,21.18-33.73-.58-5.61-17.38-22.93-22.74-24.35-5.87-1.56-20.65-.64-27.74-1.25-15.5-1.33-30.31-4.01-46.04-3.03-21.08,1.32-62.37,13.14-76.94,29.04-4.93,5.38-12.31,22.35-17.08,29.92-8.14,12.93-19.47,29.07-31.49,38.5-8.44,6.62-19.21,9.22-28.24,15.75-14.39,10.41-33.13,37.92-13.17,51.84,14.4,10.05,33.53-2.6,47.23-4.76,14.71-2.32,18.26,14.69,28.23,17.29,8.3,2.17,22.82-1.68,25.75-10.3,6.88-20.25-6.69-47.15,9.29-67.71,14.35-18.45,27.49-14.41,33.69,7.26,3.49,12.2,1.16,8.86-2.02,18.42-.88,2.64-1.82,7.4-1.63,10.15,1.11,16.17,27.96,24.82,14.77,44.98-3.91,5.97-26.72,18.92-34.14,23.85-5.31,3.52-10.84,8.9-15.98,12.02-13.92,8.43-49.98,15.73-64.98,9.6-11.08-4.53-11.69-28.92-28.17-15.77-15.63,12.46-12,46.94-38.78,42.73-7.3-1.15-17.01-10.36-22.14-9.75-4.78.56-10.52,11.81-14.83,15.25-6.18,4.93-13.32,5.26-20.04,7.95-13.95,5.59-2.75,11.71.85,18.73,5.03,9.8,2.13,39.35-5.54,47.58-4.66,5-18.53-1.03-25.48-1.55-11.6-.87-16.77-.87-22.41,9.66-7.64,14.28-14.86,41.19-.6,53.35,11.28,9.63,44.88,13.76,56,3.06,12.25-15.45,22.79-32.55,35.04-47.95,4.61-5.79,9.24-11.55,17-13,8.13-1.52,24.13-3.85,31.94-3.13,16.96,1.57,29.9,20.71,31.44,36.56.38,3.89-1.26,15.08,2.01,17.05,2.8,1.69,33.02-12.25,33.91-15.23,1.25-4.2-22.55-35.92-20.87-44.3,1.77-2.1,27.32-2.51,31.37-1.95,14.46,1.99,31.27,30.66,36.76,43.23,3.42,7.85,6.63,29.44,18.53,24.9,8.3-4.9,27.39-26.75,37.29-23.8,8.17,2.44,16.5,24.73,21.56,32.5,4.98,7.64,8.88,12.71,17.43,16.57,6.75,3.05,14.38,5.38,20.61,8.19,10.07-12.11,20.32-24.08,31.08-35.59,26.27-28.14,55.79-52.87,88.96-72.52,35.68-21.14,74.63-34.73,115.44-41.87,66.51-11.64,136.79-8.77,202.68,7.96C1196.04,179.14,1021.59,47.05,817.13,20.68l-61.37-5.12h-12l-3.38,1.07c-9.18.14-18.45-.44-27.61-.07C408.27,28.85,157.31,273.15,141.93,578.57c-1.01,20.03.75,40.88,0,61l6.16,56.33c6.03,41.36,16.42,81.34,30.68,119.48,5.22.19,10.44.43,15.65.73Z"/>
  <path class="cls-3" d="M627.34,706.54c8.96-6.94,18.61-12.94,28.01-19.25,17.89-12.02,35.83-24.84,48.42-42.64,6.11-8.64,11.43-17.83,17.8-26.29,6.1-8.11,13.32-15.17,20.94-21.85,16.02-14.05,34.2-25.32,50.53-38.98,5.91-4.94,11.33-10.31,16.48-15.91-17.77.31-37.86-.81-50.45-5.87-14.75-5.93-17.81-17.01-36.8-15.17-13.92,1.35-26.43,19.14-39.83,10.82-8.03-4.98-8-15.5-11.45-22.55-2.18-4.46-13.93-15.61-18.51-17.49-13.21-5.44-45.53,5.55-61.2,7.2-11.84,1.25-23.92.74-35.83,2.16-62.44,7.43-109.37,30.53-144.24,83.73-19.36,29.53-27.81,54.64-16.65,89.92,6.03,19.04,12.71,23.57,24.25,37.74,22.13,27.16,36.22,51.36,76.5,49.46,22.98-1.09,39.68-14.04,64.45-12.01,13.92-7.29,27.5-15.2,40.66-23.84,9.21-6.05,18.21-12.42,26.92-19.17Z"/>
  <path class="cls-3" d="M540.64,286.21c16.31,7.96,29.05-11.27,27.71-25.72-.65-7.01-9.37-43.96-12.11-49.88-2.65-5.72-6.84-7.67-13.16-6.38-5.09,1.05-14.94,10.49-16.25,15.74-1.4,5.6-2.6,24.34-2.5,30.48.14,9.21,7.44,31.44,16.31,35.77Z"/>
  <path class="cls-1" d="M1330.82,604.4c.01-.17.03-.35.02-.53,0-2.71-2.21-4.91-4.93-4.91-.2,0-.4.04-.6.06l-43.04-214.16c.14-.04.27-.07.41-.12,2.51-1.05,3.69-3.94,2.63-6.44-1.05-2.51-3.94-3.69-6.44-2.63-.12.05-.22.12-.34.18l-6.15-9.07c-.58-.17-1.15-.35-1.73-.52l6.93,10.22c-.54.46-.96,1.02-1.26,1.64l-66.02-20.95h0c-1.46-.08-2.91-.14-4.37-.2l3.48,1.11,15.22,44.26c-.64.28-1.21.64-1.69,1.09l-47.35-46.75c-.53,0-1.06.01-1.59.02l48.19,47.58c-.77,1.04-1.22,2.31-1.34,3.62l-86.89-2.04,4.22-47.14c-.38.04-.77.07-1.15.11l-4.21,47-25.47-.6-10.12-40.12c-.37.08-.74.17-1.11.26l10.05,39.84-115.89-2.72c-.81.36-1.63.72-2.44,1.08l118.62,2.79,17.77,70.48c-1.63.52-2.79,1.63-3.51,2.98l-143.14-71.57c-.44.2-.87.41-1.31.61l144,72c-.52,1.54-.53,3.27-.03,4.81l-19.38,9.32-126.13-85.42c-.4.19-.8.37-1.2.56l126.14,85.43-102.73,49.4c-.69-1.22-1.94-2.1-3.77-2.1-.16,0-.31.03-.46.05l-29.62-127.8c-.35.17-.7.33-1.05.5l29.56,127.53c-.89.31-1.57.88-2.03,1.59l-48.83-27.38c1.35-3.51-.01-8.17-4.11-9.3l18.77-89.16c-.43.21-.86.42-1.3.64l-18.59,88.3c-.27-.03-.55-.05-.84-.05-1.93,0-3.43.66-4.51,1.69l-50.34-48.4c-.33.21-.65.43-.97.64l50.56,48.62c-.69.95-1.1,2.09-1.25,3.27l-69.05-4.51c-.09-.41-.3-.78-.64-1.03l12.74-41.23c-.5.35-1.01.69-1.51,1.05l-12.32,39.86c-.05,0-.1.01-.15.01l-9.65-21.66c-.29.28-.58.56-.87.83l9.48,21.28-19.53-11.13c-.27.28-.54.56-.8.85l19.82,11.3c-.09.56.05,1.16.41,1.58l-14.52,26.99c-.1-.02-.2-.03-.32-.03-.91,0-1.46.55-1.66,1.22l-35.62-.67c-.26.37-.52.75-.78,1.12l35.54.67-51.69,23.47c-.39.59-.77,1.18-1.16,1.77l54.03-24.53c.28.34.71.57,1.28.58l10.73,36.19c-1.48.68-2.27,2.14-2.41,3.67l-69.61,1.58-.76-7.18c-.33.5-.66,1-.98,1.5l.6,5.7-4.42.1c-.25.38-.51.77-.76,1.15l5.3-.12,7.4,70.08-17.61,2.35-15.18-43.49c-.27.37-.55.73-.82,1.1l14.85,42.54-59.99,8.02c-.48.45-.97.89-1.45,1.34l61.82-8.26,8.93,25.59-23.84,31.71-68.04-30.57c-.33.27-.66.53-.99.8l68.33,30.7-55.23,73.49c-.97-.63-2.19-1.01-3.65-1.01-.51,0-.98.05-1.43.14l-26.93-88.81c-.32.23-.65.46-.98.69l26.82,88.44c-1.97.75-3.23,2.38-3.76,4.25l-76.8-18.73c-.03-.44-.2-.85-.5-1.16l24.79-53.49c-.58.34-1.15.69-1.73,1.03l-24.09,51.99c-.07,0-.13-.02-.21-.02-.6,0-1.04.24-1.33.59l-30.02-13.65c-.05.04-.11.09-.16.13-.27.22-.54.45-.8.68l30.58,13.9c-.07.86.39,1.77,1.38,1.95l5.8,48.31c-7.36,1.35-6.92,13.5,1.37,13.5.47,0,.9-.05,1.32-.12l15.32,53.96c-3.98,1.64-3.4,8.74,1.78,8.74.31,0,.6-.04.88-.09l11.32,34.16c-5.96,2.46-5.08,13.11,2.69,13.11.79,0,1.52-.11,2.17-.32l14.8,34.54c-1.02.97-.63,3.18,1.2,3.18.02,0,.03,0,.05,0l11.7,32.34c-1.08.9-.77,3.06.92,3.23l13.36,63.81c-4.3,1.4-3.82,8.84,1.48,8.84,2.35,0,3.74-1.48,4.2-3.24l58.16,10.07c.11.81.68,1.54,1.73,1.54,1.31,0,1.89-1.14,1.73-2.15l34.55-19.68c.71,1.08,1.9,1.84,3.59,1.84,5,0,5.72-6.63,2.16-8.55l27.53-71.31c.34.08.7.12,1.1.12,5.68,0,5.83-8.55.47-9.04l-.77-35.41c7.58-.68,7.82-12.15.66-13.46l4.28-35.44c1.69-.3,1.85-2.72.46-3.41l1.76-11.72c1.33-.2,1.74-1.7,1.23-2.7l39.4-45.85c.2.08.43.13.7.13,1.82,0,2.22-2.19,1.21-3.17l8.37-19.27c.39.11.81.18,1.27.18,4.12,0,5.33-4.5,3.64-7.17l38.38-35.9c.24.13.53.22.88.22,1.66,0,2.13-1.82,1.45-2.88l13.97-19.54c.95.58,2.12.92,3.51.92,8.77,0,8.78-13.63,0-13.63-2.3,0-4,.94-5.09,2.33l-16.7-12.39c.28-1.05-.27-2.36-1.68-2.36-.44,0-.8.13-1.08.35l-43.96-31.5c1.24-2.69-.05-6.65-3.92-6.65-.19,0-.37.03-.55.05l-11.11-44.04c6.48-2.08,5.75-13.29-2.22-13.29-.17,0-.33.01-.49.02l-8.09-51.43c1.25-.33,2.12-1.15,2.61-2.17l34.5,14.1c-.05.94.53,1.92,1.74,1.92l10.97,33.51c-5.99,2.45-5.11,13.12,2.66,13.12.98,0,1.85-.18,2.61-.48l15.77,30.78c-3.09,2.19-2.24,8.31,2.57,8.31,2.18,0,3.55-1.27,4.1-2.85l22.41,6c.05.87.63,1.7,1.75,1.7s1.68-.82,1.74-1.67l33.63-8.56c.74,2.54,2.83,4.63,6.27,4.63,7.01,0,8.42-8.69,4.22-12.19l29.34-44.53c.57.28,1.24.45,2.02.45,5.85,0,5.85-9.08,0-9.08-1.49,0-2.59.59-3.33,1.47l-54.04-38.56c.15-.61.03-1.29-.37-1.76l15.23-28.56c.48.18,1.01.29,1.62.29,1.69,0,2.88-.77,3.6-1.86l29.5,16.67c-.16,1,.42,2.14,1.73,2.14.42,0,.77-.12,1.04-.32l32.95,25.04c-1.34,2.69-.06,6.77,3.86,6.77,2.5,0,3.92-1.66,4.29-3.56l41.7,3.97c.15.75.72,1.41,1.71,1.41.33,0,.61-.08.85-.21l62.93,60.81c-1.75,2.66-.56,7.23,3.6,7.23.05,0,.08-.01.13-.01l7.37,47.59c-.75.38-1.04,1.26-.88,2.04l-1.21.77,1.38-.28c.26.53.77.92,1.54.92.22,0,.42-.04.6-.1l21.19,27.62c-2.32,2.52-1.27,7.76,3.19,7.76s5.45-4.97,3.37-7.56l33.97-39.12c.67.46,1.51.76,2.54.76,5.25,0,5.78-7.3,1.6-8.8l5.2-21.81c.33.04.67.07,1.02.07,6.97,0,8.4-8.6,4.29-12.13l56.73-58.92c.44.33.93.59,1.46.76l-42.7,214.25c-2.11-.23-4.21.91-5.07,2.97-.83,1.97-.26,4.16,1.23,5.52l-121.7,181.46c-1.9-1.24-4.47-1.04-6.15.63-1.43,1.42-1.8,3.5-1.12,5.27l-181.79,121.39c-1.33-1.67-3.63-2.35-5.7-1.5-1.97.81-3.12,2.75-3.03,4.77l-214.4,42.32c-.65-1.96-2.48-3.38-4.65-3.38s-4.05,1.46-4.67,3.47l-214.39-42.42c0-1.94-1.14-3.78-3.05-4.57-2.14-.88-4.52-.13-5.83,1.66l-182.08-120.76c1.06-1.88.8-4.31-.81-5.9-1.51-1.49-3.72-1.8-5.54-.95l-99.56-146.35c-.48-.03-.95-.06-1.43-.09l100.03,147.04c-.15.12-.31.23-.46.38-1.92,1.94-1.89,5.05.04,6.96.96.95,2.21,1.42,3.46,1.42s2.54-.49,3.5-1.46c.04-.04.07-.09.11-.14l182.18,120.83s-.02.03-.02.04c-1.03,2.51.17,5.38,2.69,6.42.61.25,1.24.36,1.86.36,1.94,0,3.78-1.15,4.56-3.05.1-.24.16-.48.22-.73l214.33,42.41c0,.11-.03.22-.03.34,0,2.72,2.2,4.92,4.92,4.92s4.92-2.2,4.92-4.92c0-.15-.03-.29-.04-.43l214.36-42.31c.05.18.09.36.16.54.78,1.9,2.62,3.05,4.55,3.05.63,0,1.26-.12,1.87-.37,2.51-1.04,3.71-3.91,2.68-6.43-.03-.08-.08-.14-.12-.22l181.73-121.35c.16.24.34.47.55.68.96.97,2.23,1.45,3.5,1.45s2.5-.47,3.46-1.42c1.91-1.89,1.94-4.94.09-6.88l121.75-181.54c.16.09.31.19.48.26.61.26,1.26.39,1.89.39,1.92,0,3.75-1.14,4.54-3.03,1.05-2.51-.13-5.39-2.64-6.43-.08-.04-.17-.05-.26-.08l42.71-214.28c.13.01.26.04.4.04,2.72,0,4.92-2.2,4.92-4.92,0-.18-.02-.36-.03-.53ZM1207.46,668.55l47.9,4.48c0,1.08.21,2.17.64,3.14l-45.33,28.8-3.22-36.42ZM1210.36,714.32l-18.18,3.75,17.53-11.14.65,7.39ZM1185.31,665.34c-.06-1.86-1.09-3.66-3.11-4.2l14.69-93.31c.16.01.32.02.49.02.01,0,.02,0,.03,0l8.79,99.45-20.89-1.95ZM1029.67,566.43l77.41-65.87,6.93,4.7-46.5,86.36c-.49-.18-1.02-.3-1.64-.3-1.43,0-2.51.55-3.24,1.37l-32.94-25.04c.11-.39.11-.83-.02-1.21ZM1131.8,479.13l90.49-66.06c.77,1,1.86,1.76,3.25,2.13l-27.4,139.06c-.24-.02-.5-.04-.76-.04-1.74,0-3.12.54-4.17,1.4l-61.75-67.68c2.01-2.4,2.12-6.24.34-8.81ZM1114.32,598.73l9.57-86.79,67.65,45.81c-.82,1.7-.95,3.76-.39,5.57l-76.27,35.82c-.15-.17-.34-.32-.56-.42ZM1125.17,490.01l-2.2,19.94-7.47-5.06,8.24-15.3c.44.19.92.32,1.43.41ZM1126.3,490.12c.06,0,.12,0,.18,0,1.74,0,3.12-.54,4.17-1.4l61.75,67.68c-.1.12-.19.24-.28.37l-68.08-46.11,2.27-20.55ZM1122.74,489.05l-8.18,15.2-6.58-4.45,13.7-11.66c.31.34.67.65,1.06.91ZM1068.52,592.13l46.44-86.24,7.87,5.33-9.64,87.39c-.63.12-1.05.54-1.24,1.06l-41.7-3.97c-.04-1.38-.61-2.73-1.73-3.57ZM1115.3,600.21l76.27-35.82c.79,1.58,2.18,2.84,4.19,3.29l-14.69,93.3s-.09-.01-.14-.01c-1.2,0-2.14.39-2.85,1l-62.92-60.8c.12-.3.17-.63.14-.95ZM1198.55,567.75c.64-.1,1.23-.27,1.76-.51l57.74,100.2c-1.46,1.06-2.32,2.7-2.59,4.45l-48.09-4.49-8.81-99.65ZM1259.02,666.86l-57.74-100.2c1.03-.74,1.76-1.78,2.2-2.95l45.64,15.59,11.37,87.09c-.53.1-1.03.26-1.48.47ZM1203.79,562.62c.69-3.33-.82-7.19-4.54-8.16l27.4-139.06c.24.02.5.04.76.04.11,0,.21-.01.31-.02l21.23,162.63-45.16-15.43ZM1228.85,415.3c.39-.08.76-.19,1.11-.32l92.89,185.1c-.82.66-1.43,1.58-1.69,2.64l-71-24.25-21.3-163.16ZM1324.21,599.29c-.14.05-.27.11-.4.17l-92.83-184.99c2.78-1.74,3.63-5.5,2.55-8.48l43.17-23.06c.92,1.38,2.47,2.2,4.09,2.2.13,0,.25-.03.38-.04l43.04,214.2ZM1210.78,358.51l65.19,20.69c-.19.88-.12,1.82.22,2.71l-43.12,23.04c-1.03-1.82-2.91-3.15-5.65-3.15-.6,0-1.16.07-1.68.19l-14.95-43.48ZM1220.85,409.03c.06,1.08.33,2.13.82,3.07l-90.61,66.15c-.86-.85-2-1.45-3.42-1.66l6.23-69.6,86.97,2.04ZM1107.66,406.37l25.08.59-6.22,69.54s-.03,0-.04,0c-.39,0-.76.04-1.11.09l-17.71-70.21ZM1120.7,486.72c.09.18.19.35.29.51l-13.99,11.9-5.03-3.41,18.73-9.01ZM989.09,545.75c-.23.68-.3,1.42-.23,2.14l-42.89,10.57-9.1-37.36c1.54-.48,2.68-1.48,3.41-2.72l48.81,27.37ZM973.49,582.37c.13.26.32.48.58.65l-10.04,40.93c-.34-.05-.69-.08-1.07-.08s-.72.03-1.06.08l-9.09-37.32,20.67-4.25ZM960.8,624.18c-1.71.53-2.92,1.7-3.63,3.13l-61.35-28.97,55.89-11.49,9.09,37.34ZM895.58,597.23c-.07-.15-.17-.28-.28-.4l13.67-28.08,36.16-8.91,6.31,25.91-55.86,11.49ZM843.04,539.7l85.42-22.84c.45,1.48,1.36,2.81,2.74,3.64l-23.02,47.27-33.34,8.21-32-35.52c.11-.23.18-.49.19-.75ZM907.53,569.1l-13.26,27.24c-.08,0-.16-.02-.24-.02-.28,0-.53.05-.74.15l-17.58-19.52,31.83-7.84ZM909.62,567.41l22.61-46.43c.73.27,1.55.43,2.48.43.37,0,.72-.03,1.06-.08l9.1,37.39-35.24,8.68ZM857.13,511.34c.1.02.2.03.32.03.87,0,1.42-.51,1.64-1.14l69.04,4.51c0,.34.03.68.08,1.01l-85.41,22.84c-.05-.09-.11-.18-.18-.26l14.52-26.99ZM842.55,541.83l31.04,34.46-15.56,3.83c-.53-1.63-1.91-2.94-4.13-2.94-.3,0-.58.04-.85.08l-10.51-35.44ZM780.07,583.97l69.51-1.58c.12.97.52,1.88,1.18,2.59l-50.54,67.25-12.76,1.71-7.39-69.96ZM859.19,649.39l-60.12,79.47c-.98-.64-2.2-1.02-3.67-1.02-.05,0-.1,0-.15,0l-6.22-58.86,11.79-15.69,56.47-7.55c.26,1.38.88,2.67,1.89,3.65ZM877.46,703.84l3.54,39.73-79.01-8.77c.02-.76-.08-1.52-.28-2.24l72.08-30.97c.64,1.26,1.87,2.2,3.68,2.26ZM929.51,779.03l-38.38,35.9c-.68-.6-1.59-1-2.73-1.03l-6.14-69.04,45.36,5.03,2.77,26.75c-.92.4-1.21,1.53-.87,2.4ZM785.77,825.44c-.34-2.54-1.93-4.88-4.77-5.56l13.8-78.46c.2.02.4.03.62.03,2.02,0,3.57-.73,4.66-1.84l84.47,76.25c-.42.69-.65,1.49-.68,2.31l-98.09,7.27ZM875.65,843.67c.03.22.1.44.2.64l-39.4,45.85c-.2-.08-.43-.13-.7-.13s-.5.05-.7.14l-50.92-58.92c.77-.87,1.28-1.94,1.53-3.08l89.99,15.51ZM825.29,999.73l-52.02,38.29c-.26-.34-.56-.65-.9-.92l52.54-80.18c.8.44,1.75.71,2.85.77l.77,35.41c-3.36.44-4.44,4.11-3.23,6.64ZM681.54,1018.9s0-.03,0-.05l25.16-11.55,55.43,32.33c-.08.2-.15.41-.22.61l-80.37-21.35ZM668.67,983.25l49.27-23.2c.99,1.98,2.92,3.45,5.8,3.45.99,0,1.87-.18,2.63-.49l14.22,27.46-33.84,15.54-38.1-22.23c.03-.18.03-.36.01-.54ZM651.3,934.69l13.8-45.04,53.78,62.28c-.72.81-1.22,1.8-1.49,2.86l-62.1-12.96c.29-2.91-1.04-6.01-3.99-7.14ZM621.69,829.02l65.95-30.5c.66,1.34,1.75,2.45,3.28,3.04l-23.93,78.08-6.39,3.06-40.29-46.66c1.65-1.85,2.11-4.64,1.38-7.02ZM793.7,728.02l-15.55-44.56,9.89-13.16,6.09,57.63c-.15.02-.29.05-.43.08ZM793.67,741.25l-13.8,78.46c-.2-.02-.4-.03-.62-.03-3.14,0-5.16,1.76-6.05,4l-73.36-26.76c.35-1.53.22-3.19-.37-4.63l90.44-53.73c.8,1.28,2.05,2.28,3.75,2.69ZM821.65,951.82c.05.45.14.89.27,1.31l-80.3,36.87-14.24-27.51c1.9-1.22,2.87-3.39,2.93-5.6l91.33-5.08ZM762.64,1038.62l-54.69-31.9,33.16-15.23,23.4,45.2c-.78.5-1.4,1.17-1.87,1.93ZM768.16,1035.68c-.99,0-1.87.18-2.63.49l-23.37-45.15,80.19-36.82c.39.8.93,1.51,1.62,2.09l-52.54,80.18c-.91-.49-1.99-.79-3.27-.79ZM723.75,949.88c-.24,0-.47.01-.69.03l-16.49-87.97,66.92-32.06c.56,1.11,1.42,2.05,2.58,2.66l-50.16,117.65c-.65-.2-1.36-.31-2.15-.31ZM693.47,802.01c.24,0,.47-.01.69-.03l11.12,59.32-36.9,17.68,23.63-77.1c.45.09.94.14,1.45.14ZM695.28,801.79c2.12-.53,3.53-2,4.23-3.78l73.36,26.76c-.3,1.34-.25,2.77.17,4.07l-66.7,31.95-11.06-59ZM666.54,881.12l-1.91,6.24-3.25-3.77,5.17-2.48ZM667.93,880.45l37.57-18,16.44,87.65c-.85.22-1.59.57-2.22,1.05l-54.22-62.78,2.43-7.92ZM821.6,950.69l-91.33,5.08c-.25-2.11-1.36-4.09-3.32-5.13l50.16-117.65c.65.2,1.36.31,2.15.31.71,0,1.37-.1,1.96-.27l43.92,111.7c-2.3,1.12-3.48,3.51-3.54,5.95ZM887.26,813.97c-.81.16-1.47.53-1.99,1.01l-84.48-76.25c.56-.83.93-1.8,1.09-2.8l79.22,8.79,6.16,69.25ZM788.87,667.31l-1.29-12.26,11.68-1.56-10.38,13.82ZM769.1,657.53l17.35-2.32,1.42,13.44-10.17,13.53-8.6-24.65ZM777.33,684.56l15.29,43.82c-1.42.62-2.45,1.71-3.07,3.01l-35.45-15.93,23.22-30.9ZM789.15,732.45c-.49,1.66-.41,3.51.25,5.1l-90.44,53.73c-.27-.43-.58-.83-.95-1.18l55.4-73.71,35.74,16.06ZM609.41,776.17c.33-.15.58-.4.75-.7l76.8,18.73c-.14,1.09-.05,2.22.27,3.27l-65.95,30.5c-.98-2-2.92-3.49-5.82-3.49-.08,0-.16,0-.24.01l-5.8-48.32ZM617.86,837.69c.6-.22,1.15-.51,1.62-.87l40.06,46.39-21.9,10.49c-.69-1.22-1.94-2.11-3.77-2.11-.24,0-.46.04-.68.07l-15.33-53.97ZM635.84,900.26c2.06-.97,2.79-3.44,2.22-5.5l22.25-10.66,3.92,4.54-14.02,45.73c-.45-.09-.94-.14-1.45-.14-.57,0-1.11.06-1.6.17l-11.32-34.15ZM651.97,947.1c1.65-.88,2.7-2.42,3.14-4.15l62.1,12.96c-.1,1.04,0,2.1.31,3.09l-49.27,23.2c-.29-.34-.73-.57-1.32-.57-.05,0-.1.01-.15.02l-14.8-34.54ZM668.05,984.88s.05-.05.08-.07l37.37,21.8-24.37,11.19c-.29-.35-.73-.58-1.33-.58-.02,0-.04,0-.06,0l-11.69-32.34ZM680.71,1020.6c.25-.15.45-.35.59-.59l80.37,21.34c-.21,1.42-.03,2.91.55,4.21l-64.3,40.5c-.72-.99-1.87-1.68-3.48-1.68-.13,0-.24.03-.36.04l-13.36-63.82ZM698.46,1087.05l64.3-40.5c.82,1.23,2.05,2.17,3.71,2.55l-8.22,49.12c-.63.09-1.06.46-1.29.94l-58.16-10.07c.02-.7-.09-1.4-.35-2.05ZM759.74,1098.68c-.11-.11-.23-.2-.37-.27l8.22-49.13c.18.01.37.03.56.03,1.66,0,3.01-.49,4.04-1.29l22.83,26.29c-1.03,1.28-1.28,3.14-.74,4.7l-34.55,19.68ZM799.49,1072.89c-.34-.08-.7-.12-1.1-.12-1.03,0-1.87.29-2.53.76l-22.83-26.29c1.94-2.19,2.22-5.68.85-8.26l52.01-38.28c.31.36.69.65,1.13.89l-27.53,71.31ZM828.17,944.08c-.72,0-1.37.1-1.96.27l-43.92-111.7c.36-.18.7-.38,1.01-.61l50.91,58.91c-.44.86-.2,2.08.72,2.54l-1.76,11.72c-1.75.27-1.92,2.78-.47,3.44l-4.28,35.45c-.08,0-.16-.01-.25-.01ZM877.54,841.6c-.06,0-.1-.02-.16-.02-.79,0-1.31.42-1.57.97l-89.99-15.51c.01-.16.02-.31.02-.47l98.08-7.27c.21,1.23.88,2.36,1.99,3.03l-8.37,19.27ZM931.67,776.56c-.05-.01-.1-.03-.15-.04l-2.74-26.51,14.71,1.63c-.04,2,.68,4.02,2.16,5.37l-13.96,19.55ZM943.58,750.51l-14.93-1.66-1.32-12.8c.11-.05.22-.11.31-.18l16.7,12.39c-.37.7-.63,1.46-.76,2.24ZM924.9,733.88c-.24.94.19,2.07,1.3,2.29l1.3,12.56-45.35-5.03-3.55-39.93c1.01-.2,1.79-.7,2.36-1.37l43.95,31.49ZM875.98,695.07c-2.22.83-3.08,3.31-2.58,5.44l-72.08,30.98c-.33-.72-.78-1.38-1.35-1.93l60.12-79.47c.98.64,2.2,1.02,3.67,1.02.39,0,.76-.04,1.11-.09l11.11,44.05ZM862.13,637.66c-3.42.75-5.07,3.89-4.95,6.95l-55.39,7.4,49.86-66.34c.62.36,1.36.59,2.26.59.05,0,.09-.01.14-.01l8.09,51.41ZM858.26,581.24l16.2-3.99,17.49,19.41-33.79-13.81c.12-.53.15-1.07.1-1.61ZM895.11,599.6c.09-.07.17-.14.24-.22l61.39,28.99c-.28.9-.4,1.86-.34,2.81l-42.34,6.95c-.59-2.78-2.72-5.19-6.41-5.19-.56,0-1.09.06-1.58.16l-10.97-33.51ZM911.28,645.58c2.11-1.35,3.1-3.88,2.94-6.32l42.34-6.95c.29,1.35.93,2.6,1.94,3.54l-29.35,40.3c-.18-.02-.35-.05-.55-.05-.58,0-1.09.11-1.55.27l-15.78-30.79ZM930.35,676.43l29.05-39.9c.65.41,1.42.7,2.28.84l-5.2,49.05c-.52.1-.89.4-1.11.79l-22.42-6.01c.21-1.94-.65-4-2.59-4.78ZM958.37,687.24c-.17-.3-.42-.55-.76-.7l5.2-49.06c.05,0,.1,0,.15,0,1.47,0,2.69-.39,3.67-1.03l27.31,36.07c-1.6,1.56-2.25,3.93-1.95,6.15l-33.62,8.56ZM1001.78,671.59c-.91-.5-2-.8-3.28-.8-1.47,0-2.69.39-3.67,1.03l-27.31-36.07c1.37-1.33,2.04-3.25,2.02-5.16l60.26-5.99c.18.94.63,1.8,1.33,2.45l-29.35,44.54ZM1029.7,623.48l-60.25,5.99c-.36-2.35-1.8-4.49-4.31-5.28l10.03-40.91c.38-.03.69-.14.94-.33l54.05,38.57c-.28.61-.44,1.28-.46,1.96ZM975.34,579.68c-.1-.02-.2-.03-.31-.03-1.07,0-1.65.77-1.74,1.59l-20.75,4.27-6.32-25.95,42.84-10.55c.27.84.77,1.59,1.5,2.13l-15.23,28.55ZM997.39,546.02l103.4-49.73,5.32,3.6-77.13,65.63c-.26-.16-.57-.26-.95-.26-.53,0-.93.19-1.22.48l-29.49-16.67c.34-.97.35-2.06.07-3.05ZM1185.23,666.47l21.08,1.97,3.29,37.21-19.18,12.19c-.22-.2-.51-.33-.85-.38l-7.37-47.59c1.73-.46,2.74-1.84,3.04-3.4ZM1190.75,720.25c.14-.24.22-.51.25-.78l19.46-4.01,2.82,31.9c-.51.1-.94.29-1.33.52l-21.2-27.62ZM1250.75,708.89l-33.97,39.12c-.63-.44-1.42-.71-2.37-.74l-2.83-32.05,38.36-7.91c.17.57.43,1.11.8,1.57ZM1254.6,701.38c-.16-.02-.31-.05-.49-.05-3.06,0-4.51,2.49-4.36,4.86l-38.27,7.89-.69-7.84,45.77-29.08c.74,1.1,1.82,1.97,3.25,2.41l-5.2,21.81ZM1261.94,666.26c-.11,0-.21.01-.32.02l-11.3-86.56,70.68,24.14s0,.03,0,.04c0,.17.02.35.03.52-.01.17-.02.34-.02.51,0,1.19.44,2.26,1.14,3.11l-56.85,59.04c-.92-.52-2.04-.83-3.35-.83Z"/>
  <rect class="cls-7" x="1042.88" y="23.92" width="117.3" height="75.62" rx="12" ry="12" transform="translate(296.71 -692.89) rotate(39.95)"/>
  <rect class="cls-4" x="1189.14" y="146.42" width="117.3" height="75.62" rx="12" ry="12" transform="translate(409.51 -758.21) rotate(39.95)"/>
  <circle class="cls-9" cx="1173.78" cy="122.24" r="40.45"/>
  <path class="cls-5" d="M1108.82,1657.39c-2.15,0-4.56-102.08-7.97-101.69-3.41.39-6.37,101.69-9.4,101.69s-6.1-101.3-9.38-101.3-6.24,101.69-9.57,101.3c-3.33-.39-5.86-103.26-9.32-103.26s-6.58,103.26-9.39,103.26h-1.14c-4.05,0-8.59-102.08-15-101.69-6.41.39-12,101.69-17.7,101.69s-11.49-101.3-17.66-101.3-11.75,101.69-18.02,101.3c-6.27-.39-11.04-103.26-17.54-103.26s-12.4,103.26-17.68,103.26h-1.14c-9.17,0-19.45-102.08-33.97-101.69-14.52.39-27.17,101.69-40.07,101.69s-26.01-101.3-39.98-101.3-26.61,101.69-40.8,101.3c-14.2-.39-24.99-103.26-39.72-103.26s-28.07,103.26-40.02,103.26h-1.14c-14.71,0-31.2-102.08-54.48-101.69-23.28.39-43.57,101.69-64.25,101.69s-41.71-101.3-64.11-101.3-42.67,101.69-65.43,101.3c-22.77-.39-40.08-103.26-63.7-103.26s-45.01,103.26-64.18,103.26"/>
  <path class="cls-8" d="M1254,869.6c35.55-8.01,91.55-23.54,122.26-45.01,61.4-43.11,96.1-116.76,101.63-190.49,10.68-113.6-50.51-229.7-150.88-284.85-72.96-40.98-159.39-47.01-240.22-32.38-65.97,11.02-130.65,34.89-185.56,73.76-84.51,59.73-145.77,145.57-218.32,217.44-39.48,39.94-81.32,77.39-125.77,111.46-64.96,49.74-142.54,87.36-224.88,91.99-57.2,3.29-115.67-10.29-163.99-41.28-34.65-22.36-64.55-53.21-78.76-92.25-30.68-82.68-16.14-178.44,48.83-240.61,11.85-11.57,38.8-31.1,38.8-31.1,9.8-28.58,32.28-72.16,32.28-72.16-30.76,10-60.36,24.04-88.1,42.64C48.92,424.9,4.96,504.45.51,591.13c-2.62,47.89,4.69,96.3,24.23,140.4,28.69,62.6,83.77,110.43,144.86,139.25,142.15,66.44,300.26,29.11,424.44-57.64,57.49-40.34,109.5-86.72,158.57-136.46,47.16-47.54,90.34-100.69,135.3-148.43,31.11-32.95,65.09-63.42,104.79-85.23,34.41-19.06,71.99-31.48,110.55-39.63,18.32-3.92,37.07-6.75,55.75-8,37.7-2.53,76.28,1.54,111.71,15.01,61.06,22.66,108.93,73.34,131.86,134.22,21.19,55.06,20.09,119.08-2.12,173.45-20.8,50.58-74.36,89.85-119.92,110.53"/>
</svg>